# This file uses centimeters as units for non-parametric coordinates.

v 29.670658 -0.905677 -73.493301
v 29.670687 -0.905677 67.411102
v 29.670656 78.596764 -73.493301
v 29.670683 78.596764 67.411102
v 26.504742 -0.905677 -73.493301
v 26.504768 -0.905677 67.411102
v 26.504738 78.596764 -73.493301
v 26.504766 78.596764 67.411102
v 29.670671 78.596764 8.328224
v 29.670673 -0.905677 8.328224
v 28.125074 -0.905677 8.328224
v 28.125071 78.596764 8.328224
v 26.504757 -0.905677 8.114207
v 26.504753 78.596764 8.542242
v 26.504757 -0.905677 8.542242
v 26.504753 78.596764 8.114207
v 27.859879 -0.905677 8.328224
v 27.859875 78.596764 8.328224
vt 1.204522 0.882679
vt 0.386307 0.882679
vt 0.386307 0.117321
vt 1.204522 0.117321
vt 0.611553 0.117321
vt 0.611553 0.882679
vt -0.204522 0.882679
vt -0.204522 0.117321
vt 0.613693 0.481975
vt 0.613693 0.502594
vt 0.611553 0.518025
vt -0.204522 0.518025
vt -0.204522 0.481975
vt 0.882679 0.518025
vt 0.117321 0.518025
vt 0.117321 0.481975
vt 0.882679 0.481975
vt 0.386307 0.481975
vt 0.386307 0.502594
vt 0.384167 0.518025
vt -0.204522 0.518025
vt -0.204522 0.481975
vt 0.882679 0.518025
vt 0.117321 0.518025
vt 0.117321 0.481975
vt 0.882679 0.481975
vt -0.204522 0.882679
vt -0.204522 0.117321
vt 1.204522 0.117321
vt 1.204522 0.882679
vt 0.615833 0.882679
vt 0.615833 0.117321
vt 0.613693 0.481975
vt 1.204522 0.481975
vt 1.204522 0.518025
vt 0.615833 0.518025
vt 0.386307 0.481975
vt 1.204522 0.481975
vt 1.204522 0.518025
vt 0.388447 0.518025
vt 0.613693 0.882679
vt 0.613693 0.117321
vt 0.386307 0.502594
vt 0.386307 0.499575
vt 0.388447 0.518025
vt 0.613693 0.502594
vt 0.613693 0.499575
vt 0.615833 0.518025
vt 0.615833 0.882679
vt 0.384167 0.518025
vt 0.386307 0.499575
vt 0.386307 0.502594
vt 0.611553 0.518025
vt 0.613693 0.499575
vt 0.613693 0.502594
vn 1.000000 0.000000 0.000000
vn 1.000000 0.000000 0.000000
vn 1.000000 0.000000 0.000000
vn 1.000000 0.000000 0.000000
vn 1.000000 0.000000 0.000000
vn 1.000000 0.000000 0.000000
vn -1.000000 0.000000 0.000000
vn -1.000000 0.000000 0.000000
vn -1.000000 0.000000 0.000000
vn -1.000000 0.000000 0.000000
vn -1.000000 0.000000 0.000000
vn -1.000000 0.000000 0.000000
vn 0.000000 -1.000000 0.000000
vn 0.000000 -1.000000 0.000000
vn 0.000000 -1.000000 0.000000
vn 0.000000 -1.000000 0.000000
vn 0.000000 -1.000000 0.000000
vn 0.000000 -1.000000 0.000000
vn 0.000000 -1.000000 0.000000
vn 0.000000 -1.000000 0.000000
vn 0.000000 -1.000000 0.000000
vn 0.000000 0.000000 1.000000
vn 0.000000 0.000000 1.000000
vn 0.000000 0.000000 1.000000
vn 0.000000 0.000000 1.000000
vn 0.000000 0.000000 1.000000
vn 0.000000 0.000000 1.000000
vn 0.000000 1.000000 0.000000
vn 0.000000 1.000000 0.000000
vn 0.000000 1.000000 0.000000
vn 0.000000 1.000000 0.000000
vn 0.000000 1.000000 0.000000
vn 0.000000 1.000000 0.000000
vn 0.000000 1.000000 0.000000
vn 0.000000 1.000000 0.000000
vn 0.000000 1.000000 0.000000
vn 0.000000 0.000000 -1.000000
vn 0.000000 0.000000 -1.000000
vn 0.000000 0.000000 -1.000000
vn 0.000000 0.000000 -1.000000
vn 0.000000 0.000000 -1.000000
vn 0.000000 0.000000 -1.000000
vn 1.000000 0.000000 0.000000
vn 1.000000 0.000000 0.000000
vn 1.000000 0.000000 0.000000
vn 1.000000 0.000000 0.000000
vn 1.000000 0.000000 0.000000
vn 1.000000 0.000000 0.000000
vn -1.000000 0.000000 0.000000
vn -1.000000 0.000000 0.000000
vn -1.000000 0.000000 0.000000
vn -1.000000 0.000000 0.000000
vn -1.000000 0.000000 0.000000
vn -1.000000 0.000000 0.000000
vn 0.000000 -1.000000 0.000000
vn 0.000000 -1.000000 0.000000
vn 0.000000 -1.000000 0.000000
vn 0.000000 -1.000000 0.000000
vn 0.000000 -1.000000 0.000000
vn 0.000000 -1.000000 0.000000
vn 0.000000 -1.000000 0.000000
vn 0.000000 -1.000000 0.000000
vn 0.000000 -1.000000 0.000000
vn 0.000000 1.000000 0.000000
vn 0.000000 1.000000 0.000000
vn 0.000000 1.000000 0.000000
vn 0.000000 1.000000 0.000000
vn 0.000000 1.000000 0.000000
vn 0.000000 1.000000 0.000000
vn 0.000000 1.000000 0.000000
vn 0.000000 1.000000 0.000000
vn 0.000000 1.000000 0.000000
vn -0.130946 0.000000 0.991390
vn -0.130946 0.000000 0.991390
vn -0.130946 0.000000 0.991390
vn -0.130946 0.000000 0.991390
vn -0.130946 0.000000 0.991390
vn -0.130946 0.000000 0.991390
vn 0.000000 1.000000 0.000000
vn 0.000000 1.000000 0.000000
vn 0.000000 1.000000 0.000000
vn 0.000000 -1.000000 0.000000
vn 0.000000 -1.000000 0.000000
vn 0.000000 -1.000000 0.000000
vn -0.130947 0.000000 -0.991389
vn -0.130947 0.000000 -0.991389
vn -0.130947 0.000000 -0.991389
vn -0.130947 0.000000 -0.991389
vn -0.130947 0.000000 -0.991389
vn -0.130947 0.000000 -0.991389
vn 0.000000 1.000000 0.000000
vn 0.000000 1.000000 0.000000
vn 0.000000 1.000000 0.000000
vn 0.000000 -1.000000 0.000000
vn 0.000000 -1.000000 0.000000
vn 0.000000 -1.000000 0.000000
f 3/1/1 9/2/2 10/3/3
f 10/3/4 1/4/5 3/1/6
f 13/5/7 16/6/8 7/7/9
f 7/7/10 5/8/11 13/5/12
f 10/9/13 17/10/14 13/11/15
f 10/9/16 13/11/17 5/12/18
f 1/13/19 10/9/20 5/12/21
f 8/14/22 6/15/23 2/16/24
f 2/16/25 4/17/26 8/14/27
f 9/18/28 18/19/29 14/20/30
f 9/18/31 14/20/32 8/21/33
f 4/22/34 9/18/35 8/21/36
f 5/23/37 7/24/38 3/25/39
f 3/25/40 1/26/41 5/23/42
f 4/27/43 2/28/44 10/3/45
f 10/3/46 9/2/47 4/27/48
f 6/29/49 8/30/50 14/31/51
f 14/31/52 15/32/53 6/29/54
f 10/33/55 2/34/56 6/35/57
f 6/35/58 15/36/59 17/10/60
f 10/33/61 6/35/62 17/10/63
f 9/37/64 3/38/65 7/39/66
f 7/39/67 16/40/68 18/19/69
f 9/37/70 7/39/71 18/19/72
f 12/41/73 16/6/74 13/5/75
f 13/5/76 11/42/77 12/41/78
f 17/43/79 11/44/80 13/45/81
f 18/46/82 12/47/83 14/48/84
f 11/42/85 15/32/86 14/49/87
f 14/49/88 12/41/89 11/42/90
f 15/50/91 11/51/92 17/52/93
f 16/53/94 12/54/95 18/55/96
