# This file uses centimeters as units for non-parametric coordinates.

v 26.188110 52.917564 -61.594742
v 26.188114 52.917564 -41.594742
v 26.188110 72.917564 -61.594742
v 26.188112 72.917564 -41.594742
v 26.188110 69.917564 -58.594742
v 26.188110 55.917564 -58.594742
v 26.188112 55.917564 -44.594742
v 26.188112 69.917564 -44.594742
v 24.812426 72.917564 -61.594742
v 24.812428 52.917564 -61.594742
v 24.812429 52.917564 -41.594742
v 24.812429 72.917564 -41.594742
v 25.688110 55.917564 -58.594742
v 25.688110 69.917564 -58.594742
v 25.688112 69.917564 -44.594742
v 25.688112 55.917564 -44.594742
v 26.482544 52.917564 -61.594742
v 26.482548 52.917564 -41.594742
v 26.482544 72.917564 -61.594742
v 26.482548 72.917564 -41.594742
vt 0.065592 0.121188
vt 0.470965 0.121187
vt 0.470965 0.878813
vt 0.065592 0.878813
vt 0.000500 -1.770456
vt 0.999500 -1.770457
vt 0.849650 -1.089320
vt 0.150350 -1.089319
vt 0.000500 -1.878573
vt 0.999500 -1.878574
vt 0.849650 -1.165002
vt 0.150350 -1.165001
vt 0.999500 2.770456
vt 0.000500 2.770457
vt 0.150350 2.089320
vt 0.849650 2.089319
vt 0.999500 2.878573
vt 0.000500 2.878574
vt 0.150350 2.165002
vt 0.849650 2.165001
vt 0.000500 0.176619
vt 0.999500 0.176619
vt 0.999500 0.999500
vt 0.000500 0.999500
vt 0.000500 0.176619
vt 0.999500 0.176619
vt 0.999500 0.999500
vt 0.000500 0.999500
vt 0.000500 0.176619
vt 0.999500 0.176619
vt 0.999500 0.999500
vt 0.000500 0.999500
vt 0.000500 0.176619
vt 0.999500 0.176619
vt 0.999500 0.999500
vt 0.000500 0.999500
vt 0.150350 0.176619
vt 0.849650 0.176619
vt 0.849650 0.475700
vt 0.150350 0.475700
vt 0.150350 0.176619
vt 0.849650 0.176619
vt 0.849650 0.475700
vt 0.150350 0.475700
vt 0.150350 0.176619
vt 0.849650 0.176619
vt 0.849650 0.475700
vt 0.150350 0.475700
vt 0.150350 0.176619
vt 0.849650 0.176619
vt 0.849650 0.475700
vt 0.150350 0.475700
vt 0.000500 0.000500
vt 0.999500 0.000500
vt 0.999500 0.176619
vt 0.000500 0.176619
vt 0.000500 0.000500
vt 0.999500 0.000500
vt 0.000500 0.000500
vt 0.999500 0.000500
vt 0.000500 0.176619
vt 0.000500 0.000500
vt 0.999500 0.000500
vt 0.999500 2.770457
vt 0.000500 2.770456
vt 0.000500 -1.770457
vt 0.999500 -1.770456
vn -1.000000 0.000000 0.000000
vn -1.000000 0.000000 0.000000
vn -1.000000 0.000000 0.000000
vn -1.000000 0.000000 0.000000
vn -1.000000 0.000000 0.000000
vn -1.000000 0.000000 0.000000
vn -0.959941 0.000000 0.280202
vn -0.959941 0.000000 0.280202
vn -0.959941 0.000000 0.280202
vn -0.959941 0.000000 0.280202
vn -0.959941 0.000000 0.280202
vn -0.959941 0.000000 0.280202
vn -0.959941 0.280202 0.000000
vn -0.959941 0.280202 0.000000
vn -0.959941 0.280202 0.000000
vn -0.959941 0.280202 0.000000
vn -0.959941 0.280202 0.000000
vn -0.959941 0.280202 0.000000
vn -0.959941 0.000000 -0.280201
vn -0.959941 0.000000 -0.280201
vn -0.959941 0.000000 -0.280201
vn -0.959941 0.000000 -0.280201
vn -0.959941 0.000000 -0.280201
vn -0.959941 0.000000 -0.280201
vn -0.959941 -0.280202 0.000000
vn -0.959941 -0.280202 0.000000
vn -0.959941 -0.280202 0.000000
vn -0.959941 -0.280202 0.000000
vn -0.959941 -0.280202 0.000000
vn -0.959941 -0.280202 0.000000
vn 0.000000 0.000000 -1.000000
vn 0.000000 0.000000 -1.000000
vn 0.000000 0.000000 -1.000000
vn 0.000000 0.000000 -1.000000
vn 0.000000 0.000000 -1.000000
vn 0.000000 0.000000 -1.000000
vn 0.000000 -1.000000 0.000000
vn 0.000000 -1.000000 0.000000
vn 0.000000 -1.000000 0.000000
vn 0.000000 -1.000000 0.000000
vn 0.000000 -1.000000 0.000000
vn 0.000000 -1.000000 0.000000
vn 0.000000 0.000000 1.000000
vn 0.000000 0.000000 1.000000
vn 0.000000 0.000000 1.000000
vn 0.000000 0.000000 1.000000
vn 0.000000 0.000000 1.000000
vn 0.000000 0.000000 1.000000
vn 0.000000 1.000000 0.000000
vn 0.000000 1.000000 0.000000
vn 0.000000 1.000000 0.000000
vn 0.000000 1.000000 0.000000
vn 0.000000 1.000000 0.000000
vn 0.000000 1.000000 0.000000
vn 0.000000 0.000000 1.000000
vn 0.000000 0.000000 1.000000
vn 0.000000 0.000000 1.000000
vn 0.000000 0.000000 1.000000
vn 0.000000 0.000000 1.000000
vn 0.000000 0.000000 1.000000
vn 0.000000 -1.000000 0.000000
vn 0.000000 -1.000000 0.000000
vn 0.000000 -1.000000 0.000000
vn 0.000000 -1.000000 0.000000
vn 0.000000 -1.000000 0.000000
vn 0.000000 -1.000000 0.000000
vn 0.000000 0.000000 -1.000000
vn 0.000000 0.000000 -1.000000
vn 0.000000 0.000000 -1.000000
vn 0.000000 0.000000 -1.000000
vn 0.000000 0.000000 -1.000000
vn 0.000000 0.000000 -1.000000
vn 0.000000 1.000000 0.000000
vn 0.000000 1.000000 0.000000
vn 0.000000 1.000000 0.000000
vn 0.000000 1.000000 0.000000
vn 0.000000 1.000000 0.000000
vn 0.000000 1.000000 0.000000
vn 0.000000 0.000000 -1.000000
vn 0.000000 0.000000 -1.000000
vn 0.000000 0.000000 -1.000000
vn 0.000000 0.000000 -1.000000
vn 0.000000 0.000000 -1.000000
vn 0.000000 0.000000 -1.000000
vn 0.000000 1.000000 0.000000
vn 0.000000 1.000000 0.000000
vn 0.000000 1.000000 0.000000
vn 0.000000 1.000000 0.000000
vn 0.000000 1.000000 0.000000
vn 0.000000 1.000000 0.000000
vn 0.000000 0.000000 1.000000
vn 0.000000 0.000000 1.000000
vn 0.000000 0.000000 1.000000
vn 0.000000 0.000000 1.000000
vn 0.000000 0.000000 1.000000
vn 0.000000 0.000000 1.000000
vn 0.000000 -1.000000 0.000000
vn 0.000000 -1.000000 0.000000
vn 0.000000 -1.000000 0.000000
vn 0.000000 -1.000000 0.000000
vn 0.000000 -1.000000 0.000000
vn 0.000000 -1.000000 0.000000
vn 1.000000 0.000000 0.000000
vn 1.000000 0.000000 0.000000
vn 1.000000 0.000000 0.000000
vn 1.000000 0.000000 0.000000
vn 1.000000 0.000000 0.000000
vn 1.000000 0.000000 0.000000
f 6/1/1 7/2/2 8/3/3
f 8/3/4 5/4/5 6/1/6
f 9/5/7 10/6/8 13/7/9
f 13/7/10 14/8/11 9/5/12
f 10/9/13 11/10/14 16/11/15
f 16/11/16 13/12/17 10/9/18
f 11/13/19 12/14/20 15/15/21
f 15/15/22 16/16/23 11/13/24
f 12/17/25 9/18/26 14/19/27
f 14/19/28 15/20/29 12/17/30
f 3/21/31 1/22/32 10/23/33
f 10/23/34 9/24/35 3/21/36
f 1/25/37 2/26/38 11/27/39
f 11/27/40 10/28/41 1/25/42
f 2/29/43 4/30/44 12/31/45
f 12/31/46 11/32/47 2/29/48
f 4/33/49 3/34/50 9/35/51
f 9/35/52 12/36/53 4/33/54
f 6/37/55 5/38/56 14/39/57
f 14/39/58 13/40/59 6/37/60
f 5/41/61 8/42/62 15/43/63
f 15/43/64 14/44/65 5/41/66
f 8/45/67 7/46/68 16/47/69
f 16/47/70 15/48/71 8/45/72
f 7/49/73 6/50/74 13/51/75
f 13/51/76 16/52/77 7/49/78
f 1/22/79 3/21/80 19/53/81
f 19/53/82 17/54/83 1/22/84
f 3/55/85 4/56/86 20/57/87
f 20/57/88 19/58/89 3/55/90
f 4/30/91 2/29/92 18/59/93
f 18/59/94 20/60/95 4/30/96
f 2/26/97 1/61/98 17/62/99
f 17/62/100 18/63/101 2/26/102
f 20/64/103 18/65/104 17/66/105
f 17/66/106 19/67/107 20/64/108
v 26.188110 52.917564 -40.739815
v 26.188114 52.917564 -20.739813
v 26.188110 72.917564 -40.739815
v 26.188112 72.917564 -20.739813
v 26.188110 69.917564 -37.739815
v 26.188110 55.917564 -37.739815
v 26.188112 55.917564 -23.739813
v 26.188112 69.917564 -23.739813
v 24.812426 72.917564 -40.739815
v 24.812428 52.917564 -40.739815
v 24.812429 52.917564 -20.739813
v 24.812429 72.917564 -20.739813
v 25.688110 55.917564 -37.739815
v 25.688110 69.917564 -37.739815
v 25.688112 69.917564 -23.739813
v 25.688112 55.917564 -23.739813
v 26.482544 52.917564 -40.739815
v 26.482548 52.917564 -20.739813
v 26.482544 72.917564 -40.739815
v 26.482548 72.917564 -20.739813
vt 0.547931 0.120502
vt 0.930477 0.120502
vt 0.930477 0.891617
vt 0.547931 0.891617
vt 0.999501 2.127567
vt 0.000500 2.127568
vt 0.150350 1.639297
vt 0.849650 1.639297
vt 0.000500 -1.246718
vt 0.999500 -1.246719
vt 0.849650 -0.722703
vt 0.150350 -0.722703
vt 0.000499 -1.127567
vt 0.999500 -1.127568
vt 0.849650 -0.639297
vt 0.150350 -0.639297
vt 0.999500 2.246718
vt 0.000500 2.246719
vt 0.150350 1.722703
vt 0.849650 1.722703
vt 0.000499 0.176619
vt 0.999500 0.176619
vt 0.999500 0.999500
vt 0.000499 0.999500
vt 0.000500 0.176619
vt 0.999500 0.176619
vt 0.999500 0.999501
vt 0.000500 0.999501
vt 0.000499 0.176619
vt 0.999500 0.176619
vt 0.999500 0.999500
vt 0.000499 0.999500
vt 0.000500 0.176619
vt 0.999500 0.176619
vt 0.999500 0.999501
vt 0.000500 0.999501
vt 0.150350 0.176619
vt 0.849650 0.176619
vt 0.849650 0.475700
vt 0.150350 0.475700
vt 0.150350 0.176619
vt 0.849650 0.176619
vt 0.849650 0.475700
vt 0.150350 0.475700
vt 0.150350 0.176619
vt 0.849650 0.176619
vt 0.849650 0.475700
vt 0.150350 0.475700
vt 0.150350 0.176619
vt 0.849650 0.176619
vt 0.849650 0.475700
vt 0.150350 0.475700
vt 0.000499 0.000500
vt 0.999500 0.000500
vt 0.999500 0.176619
vt 0.000500 0.176619
vt 0.000500 0.000500
vt 0.999500 0.000500
vt 0.000499 0.000500
vt 0.999500 0.000500
vt 0.000500 0.176619
vt 0.000500 0.000500
vt 0.999500 0.000500
vt 0.000500 -1.127568
vt 0.999501 -1.127567
vt 0.999500 2.127568
vt 0.000499 2.127567
vn -1.000000 0.000000 0.000000
vn -1.000000 0.000000 0.000000
vn -1.000000 0.000000 0.000000
vn -1.000000 0.000000 0.000000
vn -1.000000 0.000000 0.000000
vn -1.000000 0.000000 0.000000
vn -0.959941 0.000000 0.280202
vn -0.959941 0.000000 0.280202
vn -0.959941 0.000000 0.280202
vn -0.959941 0.000000 0.280202
vn -0.959941 0.000000 0.280202
vn -0.959941 0.000000 0.280202
vn -0.959941 0.280202 0.000000
vn -0.959941 0.280202 0.000000
vn -0.959941 0.280202 0.000000
vn -0.959941 0.280202 0.000000
vn -0.959941 0.280202 0.000000
vn -0.959941 0.280202 0.000000
vn -0.959941 0.000000 -0.280201
vn -0.959941 0.000000 -0.280201
vn -0.959941 0.000000 -0.280201
vn -0.959941 0.000000 -0.280201
vn -0.959941 0.000000 -0.280201
vn -0.959941 0.000000 -0.280201
vn -0.959941 -0.280202 0.000000
vn -0.959941 -0.280202 0.000000
vn -0.959941 -0.280202 0.000000
vn -0.959941 -0.280202 0.000000
vn -0.959941 -0.280202 0.000000
vn -0.959941 -0.280202 0.000000
vn 0.000000 0.000000 -1.000000
vn 0.000000 0.000000 -1.000000
vn 0.000000 0.000000 -1.000000
vn 0.000000 0.000000 -1.000000
vn 0.000000 0.000000 -1.000000
vn 0.000000 0.000000 -1.000000
vn 0.000000 -1.000000 0.000000
vn 0.000000 -1.000000 0.000000
vn 0.000000 -1.000000 0.000000
vn 0.000000 -1.000000 0.000000
vn 0.000000 -1.000000 0.000000
vn 0.000000 -1.000000 0.000000
vn 0.000000 0.000000 1.000000
vn 0.000000 0.000000 1.000000
vn 0.000000 0.000000 1.000000
vn 0.000000 0.000000 1.000000
vn 0.000000 0.000000 1.000000
vn 0.000000 0.000000 1.000000
vn 0.000000 1.000000 0.000000
vn 0.000000 1.000000 0.000000
vn 0.000000 1.000000 0.000000
vn 0.000000 1.000000 0.000000
vn 0.000000 1.000000 0.000000
vn 0.000000 1.000000 0.000000
vn 0.000000 0.000000 1.000000
vn 0.000000 0.000000 1.000000
vn 0.000000 0.000000 1.000000
vn 0.000000 0.000000 1.000000
vn 0.000000 0.000000 1.000000
vn 0.000000 0.000000 1.000000
vn 0.000000 -1.000000 0.000000
vn 0.000000 -1.000000 0.000000
vn 0.000000 -1.000000 0.000000
vn 0.000000 -1.000000 0.000000
vn 0.000000 -1.000000 0.000000
vn 0.000000 -1.000000 0.000000
vn 0.000000 0.000000 -1.000000
vn 0.000000 0.000000 -1.000000
vn 0.000000 0.000000 -1.000000
vn 0.000000 0.000000 -1.000000
vn 0.000000 0.000000 -1.000000
vn 0.000000 0.000000 -1.000000
vn 0.000000 1.000000 0.000000
vn 0.000000 1.000000 0.000000
vn 0.000000 1.000000 0.000000
vn 0.000000 1.000000 0.000000
vn 0.000000 1.000000 0.000000
vn 0.000000 1.000000 0.000000
vn 0.000000 0.000000 -1.000000
vn 0.000000 0.000000 -1.000000
vn 0.000000 0.000000 -1.000000
vn 0.000000 0.000000 -1.000000
vn 0.000000 0.000000 -1.000000
vn 0.000000 0.000000 -1.000000
vn 0.000000 1.000000 0.000000
vn 0.000000 1.000000 0.000000
vn 0.000000 1.000000 0.000000
vn 0.000000 1.000000 0.000000
vn 0.000000 1.000000 0.000000
vn 0.000000 1.000000 0.000000
vn 0.000000 0.000000 1.000000
vn 0.000000 0.000000 1.000000
vn 0.000000 0.000000 1.000000
vn 0.000000 0.000000 1.000000
vn 0.000000 0.000000 1.000000
vn 0.000000 0.000000 1.000000
vn 0.000000 -1.000000 0.000000
vn 0.000000 -1.000000 0.000000
vn 0.000000 -1.000000 0.000000
vn 0.000000 -1.000000 0.000000
vn 0.000000 -1.000000 0.000000
vn 0.000000 -1.000000 0.000000
vn 1.000000 0.000000 0.000000
vn 1.000000 0.000000 0.000000
vn 1.000000 0.000000 0.000000
vn 1.000000 0.000000 0.000000
vn 1.000000 0.000000 0.000000
vn 1.000000 0.000000 0.000000
f 26/68/109 27/69/110 28/70/111
f 28/70/112 25/71/113 26/68/114
f 29/72/115 30/73/116 33/74/117
f 33/74/118 34/75/119 29/72/120
f 30/76/121 31/77/122 36/78/123
f 36/78/124 33/79/125 30/76/126
f 31/80/127 32/81/128 35/82/129
f 35/82/130 36/83/131 31/80/132
f 32/84/133 29/85/134 34/86/135
f 34/86/136 35/87/137 32/84/138
f 23/88/139 21/89/140 30/90/141
f 30/90/142 29/91/143 23/88/144
f 21/92/145 22/93/146 31/94/147
f 31/94/148 30/95/149 21/92/150
f 22/96/151 24/97/152 32/98/153
f 32/98/154 31/99/155 22/96/156
f 24/100/157 23/101/158 29/102/159
f 29/102/160 32/103/161 24/100/162
f 26/104/163 25/105/164 34/106/165
f 34/106/166 33/107/167 26/104/168
f 25/108/169 28/109/170 35/110/171
f 35/110/172 34/111/173 25/108/174
f 28/112/175 27/113/176 36/114/177
f 36/114/178 35/115/179 28/112/180
f 27/116/181 26/117/182 33/118/183
f 33/118/184 36/119/185 27/116/186
f 21/89/187 23/88/188 39/120/189
f 39/120/190 37/121/191 21/89/192
f 23/122/193 24/123/194 40/124/195
f 40/124/196 39/125/197 23/122/198
f 24/97/199 22/96/200 38/126/201
f 38/126/202 40/127/203 24/97/204
f 22/93/205 21/128/206 37/129/207
f 37/129/208 38/130/209 22/93/210
f 40/131/211 38/132/212 37/133/213
f 37/133/214 39/134/215 40/131/216
