# This file uses centimeters as units for non-parametric coordinates.

v -92.290539 7.453120 -46.735844
v -94.594538 7.453120 -39.055844
v -87.010539 7.453120 -36.799844
v -84.610539 7.453120 -44.383843
v -84.610539 -0.466880 -44.383843
v -84.610539 7.453120 -44.383843
v -87.010539 7.453120 -36.799844
v -87.010539 -0.466880 -36.799844
v -92.290539 -0.466880 -46.735844
v -92.290539 7.453120 -46.735844
v -84.610539 7.453120 -44.383843
v -84.610539 -0.466880 -44.383843
v -94.594538 -0.466880 -39.055844
v -94.594538 7.453120 -39.055844
v -92.290539 7.453120 -46.735844
v -92.290539 -0.466880 -46.735844
v -87.010539 -0.466880 -36.799844
v -87.010539 7.453120 -36.799844
v -94.594538 7.453120 -39.055844
v -94.594538 -0.466880 -39.055844
v -84.610539 -0.466880 -44.383843
v -87.010539 -0.466880 -36.799844
v -94.594538 -0.466880 -39.055844
v -92.290539 -0.466880 -46.735844
vn 0.000000 1.000000 0.000000
vn 0.000000 1.000000 0.000000
vn 0.000000 1.000000 0.000000
vn 0.000000 1.000000 0.000000
vn 0.000000 1.000000 0.000000
vn 0.000000 1.000000 0.000000
vn 0.953400 0.000000 0.301709
vn 0.953400 0.000000 0.301709
vn 0.953400 0.000000 0.301709
vn 0.953400 0.000000 0.301709
vn 0.953400 0.000000 0.301709
vn 0.953400 0.000000 0.301709
vn 0.292826 0.000000 -0.956166
vn 0.292826 0.000000 -0.956166
vn 0.292826 0.000000 -0.956166
vn 0.292826 0.000000 -0.956166
vn 0.292826 0.000000 -0.956166
vn 0.292826 0.000000 -0.956166
vn -0.957826 0.000000 -0.287348
vn -0.957826 0.000000 -0.287348
vn -0.957826 0.000000 -0.287348
vn -0.957826 0.000000 -0.287348
vn -0.957826 0.000000 -0.287348
vn -0.957826 0.000000 -0.287348
vn -0.285121 0.000000 0.958492
vn -0.285121 0.000000 0.958492
vn -0.285121 0.000000 0.958492
vn -0.285121 0.000000 0.958492
vn -0.285121 0.000000 0.958492
vn -0.285121 0.000000 0.958492
vn 0.000000 -1.000000 0.000000
vn 0.000000 -1.000000 0.000000
vn 0.000000 -1.000000 0.000000
vn 0.000000 -1.000000 0.000000
vn 0.000000 -1.000000 0.000000
vn 0.000000 -1.000000 0.000000
f 1//1 2//2 3//3
f 1//4 3//5 4//6
f 5//7 6//8 7//9
f 5//10 7//11 8//12
f 9//13 10//14 11//15
f 9//16 11//17 12//18
f 13//19 14//20 15//21
f 13//22 15//23 16//24
f 17//25 18//26 19//27
f 17//28 19//29 20//30
f 21//31 22//32 23//33
f 21//34 23//35 24//36
