# This file uses centimeters as units for non-parametric coordinates.

v -78.226538 15.373120 -37.999844
v -85.810539 15.373120 -35.647843
v -83.458537 15.373120 -27.967843
v -75.874538 15.373120 -30.367843
v -78.226538 -0.466880 -37.999844
v -78.226538 15.373120 -37.999844
v -75.874538 15.373120 -30.367843
v -75.874538 -0.466880 -30.367843
v -75.874538 -0.466880 -30.367843
v -75.874538 15.373120 -30.367843
v -83.458537 15.373120 -27.967843
v -83.458537 -0.466880 -27.967843
v -83.458537 -0.466880 -27.967843
v -83.458537 15.373120 -27.967843
v -85.810539 15.373120 -35.647843
v -85.810539 -0.466880 -35.647843
v -85.810539 -0.466880 -35.647843
v -85.810539 15.373120 -35.647843
v -78.226538 15.373120 -37.999844
v -78.226538 -0.466880 -37.999844
v -75.874538 -0.466880 -30.367843
v -83.458537 -0.466880 -27.967843
v -85.810539 -0.466880 -35.647843
v -78.226538 -0.466880 -37.999844
vn 0.000000 1.000000 0.000000
vn 0.000000 1.000000 0.000000
vn 0.000000 1.000000 0.000000
vn 0.000000 1.000000 0.000000
vn 0.000000 1.000000 0.000000
vn 0.000000 1.000000 0.000000
vn 0.955649 0.000000 -0.294508
vn 0.955649 0.000000 -0.294508
vn 0.955649 0.000000 -0.294508
vn 0.955649 0.000000 -0.294508
vn 0.955649 0.000000 -0.294508
vn 0.955649 0.000000 -0.294508
vn 0.301709 0.000000 0.953400
vn 0.301709 0.000000 0.953400
vn 0.301709 0.000000 0.953400
vn 0.301709 0.000000 0.953400
vn 0.301709 0.000000 0.953400
vn 0.301709 0.000000 0.953400
vn -0.956166 0.000000 0.292826
vn -0.956166 0.000000 0.292826
vn -0.956166 0.000000 0.292826
vn -0.956166 0.000000 0.292826
vn -0.956166 0.000000 0.292826
vn -0.956166 0.000000 0.292826
vn -0.296209 0.000000 -0.955123
vn -0.296209 0.000000 -0.955123
vn -0.296209 0.000000 -0.955123
vn -0.296209 0.000000 -0.955123
vn -0.296209 0.000000 -0.955123
vn -0.296209 0.000000 -0.955123
vn 0.000000 -1.000000 0.000000
vn 0.000000 -1.000000 0.000000
vn 0.000000 -1.000000 0.000000
vn 0.000000 -1.000000 0.000000
vn 0.000000 -1.000000 0.000000
vn 0.000000 -1.000000 0.000000
f 1//1 2//2 3//3
f 1//4 3//5 4//6
f 5//7 6//8 7//9
f 5//10 7//11 8//12
f 9//13 10//14 11//15
f 9//16 11//17 12//18
f 13//19 14//20 15//21
f 13//22 15//23 16//24
f 17//25 18//26 19//27
f 17//28 19//29 20//30
f 21//31 22//32 23//33
f 21//34 23//35 24//36
