# This file uses centimeters as units for non-parametric coordinates.

v 90.086614 15.151012 84.833512
v -95.654192 15.151012 84.833512
v -95.654192 15.151012 272.724715
v 89.011396 15.151012 272.724715
v -51.974207 15.151012 106.673505
v -68.102160 15.151012 160.433507
v -15.014163 15.151012 176.225511
v 1.785795 15.151012 123.137513
v 46.473814 15.151012 167.825505
v -6.614184 15.151012 184.289514
v 9.849851 15.151012 238.049516
v 62.937849 15.151012 221.249505
vn 0.000000 1.000000 0.000000
vn 0.000000 1.000000 0.000000
vn 0.000000 1.000000 0.000000
vn 0.000000 1.000000 0.000000
f 1//1 2//2 3//3 4//4
