# This file uses centimeters as units for non-parametric coordinates.

v -773.476172 245.000000 -451.338867
v -1035.476172 245.000000 -451.338916
v -1035.476172 230.000000 -451.338916
v -773.476172 230.000000 -451.338867
v -773.476172 245.000000 -678.306348
v -773.476172 230.000000 -678.306348
v -1035.476172 245.000000 -678.306445
v -1035.476172 230.000000 -678.306445
vn 0.000000 0.000000 1.000000
vn 0.000000 0.000000 1.000000
vn 0.000000 0.000000 1.000000
vn 0.000000 0.000000 1.000000
vn 0.000000 0.000000 1.000000
vn 0.000000 0.000000 1.000000
vn 1.000000 0.000000 0.000000
vn 1.000000 0.000000 0.000000
vn 1.000000 0.000000 0.000000
vn 1.000000 0.000000 0.000000
vn 1.000000 0.000000 0.000000
vn 1.000000 0.000000 0.000000
vn 0.000000 0.000000 -1.000000
vn 0.000000 0.000000 -1.000000
vn 0.000000 0.000000 -1.000000
vn 0.000000 0.000000 -1.000000
vn 0.000000 0.000000 -1.000000
vn 0.000000 0.000000 -1.000000
vn -1.000000 0.000000 -0.000000
vn -1.000000 0.000000 -0.000000
vn -1.000000 0.000000 -0.000000
vn -1.000000 0.000000 -0.000000
vn -1.000000 0.000000 -0.000000
vn -1.000000 0.000000 -0.000000
vn 0.000000 -1.000000 0.000000
vn 0.000000 -1.000000 0.000000
vn 0.000000 -1.000000 0.000000
vn 0.000000 -1.000000 0.000000
vn 0.000000 -1.000000 0.000000
vn 0.000000 -1.000000 0.000000
vn 0.000000 1.000000 0.000000
vn 0.000000 1.000000 0.000000
vn 0.000000 1.000000 0.000000
vn 0.000000 1.000000 0.000000
vn 0.000000 1.000000 0.000000
vn 0.000000 1.000000 0.000000
f 1//1 2//2 3//3
f 3//4 4//5 1//6
f 5//7 1//8 4//9
f 4//10 6//11 5//12
f 7//13 5//14 6//15
f 6//16 8//17 7//18
f 2//19 7//20 8//21
f 8//22 3//23 2//24
f 6//25 4//26 3//27
f 3//28 8//29 6//30
f 2//31 1//32 5//33
f 5//34 7//35 2//36
