# This file uses centimeters as units for non-parametric coordinates.

v 15.761500 -121.101379 -120.481697
v 15.761500 -121.101379 -60.240898
v 15.761500 -65.221180 -60.240898
v 15.761500 -65.221180 -120.481697
v 15.761500 -121.101379 0.000000
v 15.761500 -65.221180 0.000000
v 15.761500 -121.101379 60.240898
v 15.761500 -65.221180 60.240898
v 15.761500 -121.101379 120.481697
v 15.761500 -65.221180 120.481697
v 15.761500 -9.340881 -60.240898
v 15.761500 -9.340881 -120.481697
v 15.761500 -9.340881 0.000000
v 15.761500 -9.340881 60.240898
v 15.761500 -9.340881 120.481697
v 15.761500 46.539421 -60.240898
v 15.761500 46.539421 -120.481697
v 15.761500 46.539421 0.000000
v 15.761500 46.539421 60.240898
v 15.761500 46.539421 120.481697
v 15.761500 102.419625 -60.240898
v 15.761500 102.419625 -120.481697
v 15.761500 102.419625 0.000000
v 15.761500 102.419625 60.240898
v 15.761500 102.419625 120.481697
vt 0.000000 0.000000
vt 0.250000 0.000000
vt 0.250000 0.250000
vt 0.000000 0.250000
vt 0.500000 0.000000
vt 0.500000 0.250000
vt 0.750000 0.000000
vt 0.750000 0.250000
vt 1.000000 0.000000
vt 1.000000 0.250000
vt 0.250000 0.500000
vt 0.000000 0.500000
vt 0.500000 0.500000
vt 0.750000 0.500000
vt 1.000000 0.500000
vt 0.250000 0.750000
vt 0.000000 0.750000
vt 0.500000 0.750000
vt 0.750000 0.750000
vt 1.000000 0.750000
vt 0.250000 1.000000
vt 0.000000 1.000000
vt 0.500000 1.000000
vt 0.750000 1.000000
vt 1.000000 1.000000
vn -1.000000 0.000000 0.000000
vn -1.000000 0.000000 0.000000
vn -1.000000 0.000000 0.000000
vn -1.000000 0.000000 0.000000
vn -1.000000 0.000000 0.000000
vn -1.000000 0.000000 0.000000
vn -1.000000 0.000000 0.000000
vn -1.000000 0.000000 0.000000
vn -1.000000 0.000000 0.000000
vn -1.000000 0.000000 0.000000
vn -1.000000 0.000000 0.000000
vn -1.000000 0.000000 0.000000
vn -1.000000 0.000000 0.000000
vn -1.000000 0.000000 0.000000
vn -1.000000 0.000000 0.000000
vn -1.000000 0.000000 0.000000
vn -1.000000 0.000000 0.000000
vn -1.000000 0.000000 0.000000
vn -1.000000 0.000000 0.000000
vn -1.000000 0.000000 0.000000
vn -1.000000 0.000000 0.000000
vn -1.000000 0.000000 0.000000
vn -1.000000 0.000000 0.000000
vn -1.000000 0.000000 0.000000
vn -1.000000 0.000000 0.000000
vn -1.000000 0.000000 0.000000
vn -1.000000 0.000000 0.000000
vn -1.000000 0.000000 0.000000
vn -1.000000 0.000000 0.000000
vn -1.000000 0.000000 0.000000
vn -1.000000 0.000000 0.000000
vn -1.000000 0.000000 0.000000
vn -1.000000 0.000000 0.000000
vn -1.000000 0.000000 0.000000
vn -1.000000 0.000000 0.000000
vn -1.000000 0.000000 0.000000
vn -1.000000 0.000000 0.000000
vn -1.000000 0.000000 0.000000
vn -1.000000 0.000000 0.000000
vn -1.000000 0.000000 0.000000
vn -1.000000 0.000000 0.000000
vn -1.000000 0.000000 0.000000
vn -1.000000 0.000000 0.000000
vn -1.000000 0.000000 0.000000
vn -1.000000 0.000000 0.000000
vn -1.000000 0.000000 0.000000
vn -1.000000 0.000000 0.000000
vn -1.000000 0.000000 0.000000
vn -1.000000 0.000000 0.000000
vn -1.000000 0.000000 0.000000
vn -1.000000 0.000000 0.000000
vn -1.000000 0.000000 0.000000
vn -1.000000 0.000000 0.000000
vn -1.000000 0.000000 0.000000
vn -1.000000 0.000000 0.000000
vn -1.000000 0.000000 0.000000
vn -1.000000 0.000000 0.000000
vn -1.000000 0.000000 0.000000
vn -1.000000 0.000000 0.000000
vn -1.000000 0.000000 0.000000
vn -1.000000 0.000000 0.000000
vn -1.000000 0.000000 0.000000
vn -1.000000 0.000000 0.000000
vn -1.000000 0.000000 0.000000
f 1/1/1 2/2/2 3/3/3 4/4/4
f 2/2/5 5/5/6 6/6/7 3/3/8
f 5/5/9 7/7/10 8/8/11 6/6/12
f 7/7/13 9/9/14 10/10/15 8/8/16
f 4/4/17 3/3/18 11/11/19 12/12/20
f 3/3/21 6/6/22 13/13/23 11/11/24
f 6/6/25 8/8/26 14/14/27 13/13/28
f 8/8/29 10/10/30 15/15/31 14/14/32
f 12/12/33 11/11/34 16/16/35 17/17/36
f 11/11/37 13/13/38 18/18/39 16/16/40
f 13/13/41 14/14/42 19/19/43 18/18/44
f 14/14/45 15/15/46 20/20/47 19/19/48
f 17/17/49 16/16/50 21/21/51 22/22/52
f 16/16/53 18/18/54 23/23/55 21/21/56
f 18/18/57 19/19/58 24/24/59 23/23/60
f 19/19/61 20/20/62 25/25/63 24/24/64
