# This file uses centimeters as units for non-parametric coordinates.

v 5.779323 48.008040 13.572398
v 2.174223 48.008040 -6.912702
v -0.459577 17.324343 -6.449201
v 3.145523 17.324343 14.035998
v 1.280423 49.718047 -8.430803
v -1.635577 15.746844 -7.917600
v 2.541523 15.746844 15.817599
v 5.457523 49.718146 15.304400
v 1.307423 49.419142 -8.130903
v -1.557277 16.045645 -7.626802
v 2.515823 16.045645 15.517500
v 5.380523 49.419142 15.013400
v 1.334723 49.120246 -7.831102
v -1.478677 16.344443 -7.336000
v 2.490423 16.344443 15.217398
v 5.303823 49.120246 14.722300
v 1.362323 48.821242 -7.531400
v -1.399777 16.643244 -7.045301
v 2.465323 16.643244 14.917201
v 5.227423 48.821242 14.431098
v 1.390123 48.522246 -7.231702
v -1.320577 16.941943 -6.754602
v 2.440523 16.941943 14.616900
v 5.151223 48.522246 14.139899
v 1.424223 48.160147 -6.868802
v -1.224377 17.303645 -6.402700
v 2.410723 17.303645 14.253298
v 5.059423 48.160147 13.787200
v 1.552723 48.063040 -6.803399
v -1.081077 17.379344 -6.339902
v 2.524023 17.379344 14.145300
v 5.157823 48.063040 13.681800
v 0.221223 15.123942 -8.701299
v -1.628777 15.593444 -8.071100
v 1.312823 49.863547 -8.588800
v 3.214223 49.991744 -9.228002
v 4.554323 15.123942 15.920298
v 2.600323 15.593444 15.959597
v 7.500623 49.983245 15.249499
v 5.541923 49.863547 15.441901
v -1.550577 15.892245 -7.780301
v 1.339723 49.564643 -8.288900
v 2.574423 15.892245 15.659499
v 5.464823 49.564543 15.150900
v -1.472177 16.191043 -7.489499
v 1.366923 49.265647 -7.989103
v 2.548923 16.191043 15.359400
v 5.387923 49.265647 14.859801
v -1.393377 16.489745 -7.198701
v 1.394323 48.966643 -7.689302
v 2.523723 16.489745 15.059199
v 5.311423 48.966643 14.568598
v -1.314377 16.788542 -6.908002
v 1.422023 48.667746 -7.389600
v 2.498723 16.788542 14.758998
v 5.235124 48.667746 14.277400
v -1.235077 17.087245 -6.617402
v 1.450023 48.368643 -7.089902
v 2.474023 17.087245 14.458701
v 5.159123 48.368743 13.986201
v 0.221723 15.129145 -8.701402
v 4.554723 15.129145 15.920199
v 7.500224 49.983344 15.249598
vt 1.000000 1.000000
vt 0.000000 1.000000
vt 0.000000 0.000000
vt 1.000000 0.000000
vt 0.450900 0.224900
vt 0.830800 0.224900
vt 0.830800 0.235500
vt 0.450900 0.235500
vt 0.571100 0.224900
vt 0.827600 0.224900
vt 0.827600 0.235500
vt 0.571100 0.235500
vt 0.402300 0.224900
vt 0.782200 0.224900
vt 0.782200 0.235500
vt 0.402300 0.235500
vt 0.517600 0.224900
vt 0.774200 0.224900
vt 0.774200 0.235500
vt 0.517600 0.235500
vt 0.450800 0.237500
vt 0.832900 0.237500
vt 0.571000 0.237500
vt 0.829700 0.237500
vt 0.402200 0.237500
vt 0.784300 0.237500
vt 0.517500 0.237500
vt 0.776200 0.237500
vt 0.551400 0.204000
vt 0.551100 0.236700
vt 0.126800 0.236700
vt 0.119700 0.204000
vt 0.431300 0.204000
vt 0.430900 0.236700
vt 0.130000 0.236700
vt 0.122900 0.204000
vt 0.601600 0.204300
vt 0.599700 0.236700
vt 0.175400 0.236700
vt 0.168300 0.204000
vt 0.550900 0.133500
vt 0.550700 0.137000
vt 0.133900 0.515900
vt 0.130300 0.515800
vt 0.126800 0.515600
vt 0.551100 0.130000
vt 0.821100 0.430800
vt 0.817500 0.430600
vt 0.824600 0.430900
vt 0.400500 0.813000
vt 0.400600 0.809500
vt 0.400300 0.816500
vt 0.550600 0.140600
vt 0.550400 0.144100
vt 0.140900 0.516300
vt 0.137400 0.516100
vt 0.814000 0.430400
vt 0.810500 0.430200
vt 0.400800 0.805900
vt 0.401000 0.802400
vt 0.550200 0.147600
vt 0.550100 0.151200
vt 0.148000 0.516600
vt 0.144400 0.516400
vt 0.806900 0.430100
vt 0.803400 0.429900
vt 0.401100 0.798900
vt 0.401300 0.795300
vt 0.549900 0.154700
vt 0.549700 0.158200
vt 0.155000 0.516900
vt 0.151500 0.516800
vt 0.799900 0.429700
vt 0.796300 0.429600
vt 0.401500 0.791800
vt 0.401700 0.788300
vt 0.549600 0.161800
vt 0.549400 0.165300
vt 0.162100 0.517300
vt 0.158600 0.517100
vt 0.792800 0.429400
vt 0.789300 0.429200
vt 0.401800 0.784700
vt 0.402000 0.781200
vt 0.167100 0.517500
vt 0.549200 0.170300
vt 0.784300 0.429000
vt 0.402200 0.776200
vt 0.551400 0.123000
vt 0.831600 0.431300
vt 0.398400 0.821600
vt 0.119700 0.515200
vt 0.178400 0.204300
vt 0.484800 0.204000
vt 0.484400 0.236700
vt 0.183500 0.236700
vn -0.981146 0.086827 0.172668
vn -0.981146 0.086827 0.172668
vn -0.981146 0.086827 0.172668
vn -0.981146 0.086827 0.172668
vn 0.173295 0.000000 0.984870
vn 0.173295 0.000000 0.984870
vn 0.173295 0.000000 0.984870
vn 0.173295 0.000000 0.984870
vn 0.085502 0.996225 -0.015000
vn 0.085502 0.996225 -0.015000
vn 0.085502 0.996225 -0.015000
vn 0.085502 0.996225 -0.015000
vn -0.173295 0.000000 -0.984870
vn -0.173295 0.000000 -0.984870
vn -0.173295 0.000000 -0.984870
vn -0.173295 0.000000 -0.984870
vn -0.085502 -0.996225 0.015000
vn -0.085502 -0.996225 0.015000
vn -0.085502 -0.996225 0.015000
vn -0.085502 -0.996225 0.015000
vn -0.422981 0.049998 0.904758
vn -0.422981 0.049998 0.904758
vn -0.422981 0.049998 0.904758
vn -0.422981 0.049998 0.904758
vn -0.494770 0.864648 0.087095
vn -0.494770 0.864648 0.087095
vn -0.494813 0.864623 0.087102
vn -0.494813 0.864623 0.087102
vn -0.706422 0.050002 -0.706022
vn -0.706422 0.050002 -0.706022
vn -0.706472 0.049998 -0.705972
vn -0.706472 0.049998 -0.705972
vn -0.634613 -0.764715 0.111702
vn -0.634613 -0.764715 0.111702
vn -0.634613 -0.764715 0.111702
vn -0.634613 -0.764715 0.111702
vn -0.319409 0.013100 -0.947527
vn -0.319409 0.013100 -0.947527
vn -0.319409 0.013100 -0.947527
vn -0.319409 0.013100 -0.947527
vn -0.232603 -0.971711 0.040900
vn -0.232603 -0.971711 0.040900
vn -0.232603 -0.971711 0.040900
vn -0.232603 -0.971711 0.040900
vn 0.060201 0.012000 0.998114
vn 0.060201 0.012000 0.998114
vn 0.060201 0.012000 0.998114
vn 0.060201 0.012000 0.998114
vn -0.884403 0.082900 0.459302
vn -0.884403 0.082900 0.459302
vn -0.884403 0.082900 0.459302
vn -0.884403 0.082900 0.459302
vn -0.988472 0.082898 -0.126696
vn -0.988472 0.082898 -0.126696
vn -0.988472 0.082898 -0.126696
vn -0.988472 0.082898 -0.126696
vn -0.910664 0.380785 0.160294
vn -0.910664 0.380785 0.160294
vn -0.910664 0.380785 0.160294
vn -0.910664 0.380785 0.160294
vn -0.962457 -0.212091 0.169392
vn -0.962457 -0.212091 0.169392
vn -0.962457 -0.212091 0.169392
vn -0.962457 -0.212091 0.169392
vn -0.988069 0.082897 -0.129796
vn -0.988069 0.082897 -0.129796
vn -0.988069 0.082897 -0.129796
vn -0.988069 0.082897 -0.129796
vn -0.885841 0.082904 0.456521
vn -0.885841 0.082904 0.456521
vn -0.885841 0.082904 0.456521
vn -0.885841 0.082904 0.456521
vn -0.961805 -0.215101 0.169301
vn -0.961805 -0.215101 0.169301
vn -0.961805 -0.215101 0.169301
vn -0.961805 -0.215101 0.169301
vn -0.911824 0.377910 0.160504
vn -0.911824 0.377910 0.160504
vn -0.911824 0.377910 0.160504
vn -0.911824 0.377910 0.160504
vn -0.883958 0.082796 0.460178
vn -0.883958 0.082796 0.460178
vn -0.883958 0.082796 0.460178
vn -0.883958 0.082796 0.460178
vn -0.988590 0.082999 -0.125699
vn -0.988590 0.082999 -0.125699
vn -0.988590 0.082999 -0.125699
vn -0.988590 0.082999 -0.125699
vn -0.910298 0.381699 0.160200
vn -0.910298 0.381699 0.160200
vn -0.910298 0.381699 0.160200
vn -0.910298 0.381699 0.160200
vn -0.962676 -0.211095 0.169396
vn -0.962676 -0.211095 0.169396
vn -0.962676 -0.211095 0.169396
vn -0.962676 -0.211095 0.169396
vn -0.987959 0.082797 -0.130695
vn -0.987959 0.082797 -0.130695
vn -0.987959 0.082797 -0.130695
vn -0.987959 0.082797 -0.130695
vn -0.886265 0.082997 0.455682
vn -0.886265 0.082997 0.455682
vn -0.886265 0.082997 0.455682
vn -0.886265 0.082997 0.455682
vn -0.961599 -0.216100 0.169200
vn -0.961599 -0.216100 0.169200
vn -0.961599 -0.216100 0.169200
vn -0.961599 -0.216100 0.169200
vn -0.912201 0.377000 0.160500
vn -0.912201 0.377000 0.160500
vn -0.912201 0.377000 0.160500
vn -0.912201 0.377000 0.160500
vn -0.883523 0.082802 0.461012
vn -0.883523 0.082802 0.461012
vn -0.883523 0.082802 0.461012
vn -0.883523 0.082802 0.461012
vn -0.988704 0.083000 -0.124801
vn -0.988704 0.083000 -0.124801
vn -0.988704 0.083000 -0.124801
vn -0.988704 0.083000 -0.124801
vn -0.909983 0.382493 0.160097
vn -0.909983 0.382493 0.160097
vn -0.909983 0.382493 0.160097
vn -0.909983 0.382493 0.160097
vn -0.962856 -0.210190 0.169492
vn -0.962856 -0.210190 0.169492
vn -0.962856 -0.210190 0.169492
vn -0.962856 -0.210190 0.169492
vn -0.987838 0.082803 -0.131605
vn -0.987838 0.082803 -0.131605
vn -0.987838 0.082803 -0.131605
vn -0.987838 0.082803 -0.131605
vn -0.886714 0.083001 0.454807
vn -0.886714 0.083001 0.454807
vn -0.886714 0.083001 0.454807
vn -0.886714 0.083001 0.454807
vn -0.961417 -0.216904 0.169203
vn -0.961417 -0.216904 0.169203
vn -0.961417 -0.216904 0.169203
vn -0.961417 -0.216904 0.169203
vn -0.912511 0.376205 0.160602
vn -0.912511 0.376205 0.160602
vn -0.912511 0.376205 0.160602
vn -0.912511 0.376205 0.160602
vn -0.883171 0.082797 0.461685
vn -0.883171 0.082797 0.461685
vn -0.883171 0.082797 0.461685
vn -0.883171 0.082797 0.461685
vn -0.988805 0.083000 -0.124001
vn -0.988805 0.083000 -0.124001
vn -0.988805 0.083000 -0.124001
vn -0.988805 0.083000 -0.124001
vn -0.909652 0.383280 0.160092
vn -0.909652 0.383280 0.160092
vn -0.909652 0.383280 0.160092
vn -0.909652 0.383280 0.160092
vn -0.963025 -0.209405 0.169504
vn -0.963025 -0.209405 0.169504
vn -0.963025 -0.209405 0.169504
vn -0.963025 -0.209405 0.169504
vn -0.987731 0.082803 -0.132404
vn -0.987731 0.082803 -0.132404
vn -0.987731 0.082803 -0.132404
vn -0.987731 0.082803 -0.132404
vn -0.887081 0.082998 0.454090
vn -0.887081 0.082998 0.454090
vn -0.887081 0.082998 0.454090
vn -0.887081 0.082998 0.454090
vn -0.961235 -0.217708 0.169206
vn -0.961235 -0.217708 0.169206
vn -0.961235 -0.217708 0.169206
vn -0.961235 -0.217708 0.169206
vn -0.912836 0.375415 0.160606
vn -0.912836 0.375415 0.160606
vn -0.912836 0.375415 0.160606
vn -0.912836 0.375415 0.160606
vn -0.882798 0.082800 0.462399
vn -0.882798 0.082800 0.462399
vn -0.882798 0.082800 0.462399
vn -0.882798 0.082800 0.462399
vn -0.988905 0.083000 -0.123201
vn -0.988905 0.083000 -0.123201
vn -0.988905 0.083000 -0.123201
vn -0.988905 0.083000 -0.123201
vn -0.909371 0.383988 0.159995
vn -0.909371 0.383988 0.159995
vn -0.909371 0.383988 0.159995
vn -0.909371 0.383988 0.159995
vn -0.963201 -0.208600 0.169500
vn -0.963201 -0.208600 0.169500
vn -0.963201 -0.208600 0.169500
vn -0.963201 -0.208600 0.169500
vn -0.987624 0.082802 -0.133203
vn -0.987624 0.082802 -0.133203
vn -0.987624 0.082802 -0.133203
vn -0.987624 0.082802 -0.133203
vn -0.887427 0.083003 0.453414
vn -0.887427 0.083003 0.453414
vn -0.887427 0.083003 0.453414
vn -0.887427 0.083003 0.453414
vn -0.961097 -0.218399 0.169099
vn -0.961097 -0.218399 0.169099
vn -0.961097 -0.218399 0.169099
vn -0.961097 -0.218399 0.169099
vn -0.913145 0.374619 0.160708
vn -0.913145 0.374619 0.160708
vn -0.913145 0.374619 0.160708
vn -0.913145 0.374619 0.160708
vn -0.995731 0.084903 -0.036201
vn -0.995731 0.084903 -0.036201
vn -0.995731 0.084903 -0.036201
vn -0.995731 0.084903 -0.036201
vn -0.977453 -0.122494 0.171992
vn -0.977453 -0.122494 0.171992
vn -0.977453 -0.122494 0.171992
vn -0.977453 -0.122494 0.171992
vn -0.923579 0.084898 0.373891
vn -0.923579 0.084898 0.373891
vn -0.923579 0.084898 0.373891
vn -0.923579 0.084898 0.373891
vn -0.941840 0.292312 0.165807
vn -0.941840 0.292312 0.165807
vn -0.941840 0.292312 0.165807
vn -0.941840 0.292312 0.165807
vn -0.981238 0.086503 0.172307
vn -0.981238 0.086503 0.172307
vn -0.981238 0.086503 0.172307
vn -0.981238 0.086503 0.172307
vn -0.061802 0.998028 0.011000
vn -0.061802 0.998028 0.011000
vn -0.061802 0.998028 0.011000
vn -0.061802 0.998028 0.011000
f 1/1/1 2/2/2 3/3/3 4/4/4
f 3/5/5 2/6/6 29/7/7 30/8/8
f 4/9/9 3/10/10 30/11/11 31/12/12
f 1/13/13 4/14/14 31/15/15 32/16/16
f 2/17/17 1/18/18 32/19/19 29/20/20
f 26/21/21 30/8/22 29/7/23 25/22/24
f 27/23/25 31/12/26 30/11/27 26/24/28
f 28/25/29 32/16/30 31/15/31 27/26/32
f 25/27/33 29/20/34 32/19/35 28/28/36
f 33/29/37 34/30/38 35/31/39 36/32/40
f 37/33/41 38/34/42 34/35/43 33/36/44
f 39/37/45 40/38/46 38/39/47 37/40/48
f 6/41/49 41/42/50 42/43/51 5/44/52
f 5/44/53 35/45/54 34/46/55 6/41/56
f 7/47/57 43/48/58 41/42/59 6/41/60
f 6/41/61 34/46/62 38/49/63 7/47/64
f 8/50/65 44/51/66 43/48/67 7/47/68
f 7/47/69 38/49/70 40/52/71 8/50/72
f 5/44/73 42/43/74 44/51/75 8/50/76
f 8/50/77 40/52/78 35/45/79 5/44/80
f 10/53/81 45/54/82 46/55/83 9/56/84
f 9/56/85 42/43/86 41/42/87 10/53/88
f 11/57/89 47/58/90 45/54/91 10/53/92
f 10/53/93 41/42/94 43/48/95 11/57/96
f 12/59/97 48/60/98 47/58/99 11/57/100
f 11/57/101 43/48/102 44/51/103 12/59/104
f 9/56/105 46/55/106 48/60/107 12/59/108
f 12/59/109 44/51/110 42/43/111 9/56/112
f 14/61/113 49/62/114 50/63/115 13/64/116
f 13/64/117 46/55/118 45/54/119 14/61/120
f 15/65/121 51/66/122 49/62/123 14/61/124
f 14/61/125 45/54/126 47/58/127 15/65/128
f 16/67/129 52/68/130 51/66/131 15/65/132
f 15/65/133 47/58/134 48/60/135 16/67/136
f 13/64/137 50/63/138 52/68/139 16/67/140
f 16/67/141 48/60/142 46/55/143 13/64/144
f 18/69/145 53/70/146 54/71/147 17/72/148
f 17/72/149 50/63/150 49/62/151 18/69/152
f 19/73/153 55/74/154 53/70/155 18/69/156
f 18/69/157 49/62/158 51/66/159 19/73/160
f 20/75/161 56/76/162 55/74/163 19/73/164
f 19/73/165 51/66/166 52/68/167 20/75/168
f 17/72/169 54/71/170 56/76/171 20/75/172
f 20/75/173 52/68/174 50/63/175 17/72/176
f 22/77/177 57/78/178 58/79/179 21/80/180
f 21/80/181 54/71/182 53/70/183 22/77/184
f 23/81/185 59/82/186 57/78/187 22/77/188
f 22/77/189 53/70/190 55/74/191 23/81/192
f 24/83/193 60/84/194 59/82/195 23/81/196
f 23/81/197 55/74/198 56/76/199 24/83/200
f 21/80/201 58/79/202 60/84/203 24/83/204
f 24/83/205 56/76/206 54/71/207 21/80/208
f 25/85/209 58/79/210 57/78/211 26/86/212
f 26/86/213 57/78/214 59/82/215 27/87/216
f 27/87/217 59/82/218 60/84/219 28/88/220
f 28/88/221 60/84/222 58/79/223 25/85/224
f 61/89/225 62/90/226 63/91/227 36/92/228
f 39/93/229 36/94/230 35/95/231 40/96/232
