# This file uses centimeters as units for non-parametric coordinates.

v 15.497100 15.052224 -26.440300
v 15.497100 65.132622 -26.440300
v 15.497100 65.155922 -26.417000
v 15.497100 65.132622 73.813698
v 15.497100 65.155922 73.790398
v 15.497100 15.052224 73.813698
v 15.497100 15.028923 73.790398
v 15.497100 15.028923 -26.417000
v 15.326200 16.902222 -24.067900
v 15.326200 16.902222 71.441299
v 15.326200 16.925522 71.464600
v 15.326200 63.282524 71.441299
v 15.326200 63.259224 71.464600
v 15.326300 63.282524 -24.067900
v 15.326300 63.259224 -24.091200
v 15.326200 16.925522 -24.091200
v 14.048300 15.028923 73.790398
v 14.048300 15.028923 -26.417000
v 14.048300 65.132622 73.813698
v 14.048300 15.052224 73.813698
v 14.048300 65.155922 -26.417000
v 14.048300 65.155922 73.790398
v 14.048300 15.052224 -26.440300
v 14.048300 65.132622 -26.440300
v 14.025000 15.052224 -26.384001
v 14.024900 15.052224 73.757401
v 14.024900 16.430222 72.379402
v 14.025000 16.430222 -25.006001
v 14.024900 15.085122 73.790398
v 14.025000 65.099617 73.790398
v 14.025000 63.721627 72.412399
v 14.024900 16.463219 72.412399
v 14.025000 65.132622 73.757401
v 14.025000 65.132622 -26.384001
v 14.025000 63.754616 -25.006001
v 14.025000 63.754616 72.379402
v 14.025000 65.099617 -26.417000
v 14.025000 15.085122 -26.417000
v 14.025000 16.463219 -25.039000
v 14.025000 63.721627 -25.039000
v 14.047000 16.461121 -24.972000
v 14.047000 16.461121 72.345398
v 14.043900 16.484322 72.375603
v 14.044000 63.700524 72.375603
v 14.047000 63.723717 72.345398
v 14.047000 63.723717 -24.972000
v 14.044000 63.700524 -25.002199
v 14.044000 16.484322 -25.002199
vt 1.130100 -1.678800
vt 2.608800 -0.334900
vt 2.608900 -0.333600
vt -0.081500 2.625300
vt -0.080200 2.625200
vt -1.560200 1.281400
vt -1.560200 1.280100
vt 1.128800 -1.678700
vt 0.000200 0.000000
vt 0.999800 0.000000
vt 1.000000 0.000500
vt 0.999800 1.000000
vt 1.000000 0.999500
vt 0.000200 1.000000
vt 0.000000 0.999500
vt 0.000000 0.000500
vt -1.678700 0.237500
vt 1.280100 0.237500
vt 1.280100 0.295300
vt -1.678700 0.295300
vt -1.560200 0.237500
vt -0.081500 0.237500
vt -0.081500 0.295300
vt -1.560200 0.295300
vt -1.625200 0.237500
vt 1.333600 0.237500
vt 1.333600 0.295300
vt -1.625200 0.295300
vt -1.608800 0.237500
vt -0.130100 0.237500
vt -0.130100 0.295300
vt -1.608800 0.295300
vt -0.128600 -1.677100
vt 2.558700 1.279700
vt 2.481000 1.276000
vt -0.132300 -1.599400
vt 2.558600 1.281600
vt 1.081800 2.623700
vt 1.085500 2.546000
vt 2.480900 1.277900
vt 1.080000 2.623600
vt -1.607300 -0.333200
vt -1.529600 -0.329500
vt 1.083700 2.545900
vt -1.607200 -0.335100
vt -0.130500 -1.677200
vt -0.134200 -1.599500
vt -1.529500 -0.331400
vt 2.597600 0.295400
vt -0.275800 0.295400
vt -0.261000 0.244300
vt 2.559100 0.244300
vt 2.479300 0.295500
vt 1.085200 0.295500
vt 1.073800 0.244300
vt 2.441800 0.244300
vt 2.544100 0.295400
vt -0.329300 0.295400
vt -0.314500 0.244300
vt 2.505600 0.244300
vt 2.527900 0.295500
vt 1.133800 0.295500
vt 1.122400 0.244300
vt 2.490400 0.244300
vt -0.128800 -1.678700
vt -0.130100 -1.678800
vt 2.560200 1.281400
vt 2.560200 1.280100
vt -1.608800 -0.334900
vt -1.608900 -0.333600
vt 1.080200 2.625200
vt 1.081500 2.625300
vt -0.132300 -1.597600
vt -0.133800 -1.597900
vt 2.479300 1.277300
vt 2.479200 1.275800
vt 1.083700 2.544100
vt 1.085200 2.544400
vt -1.527900 -0.330800
vt -1.527800 -0.329300
vt 1.281400 0.237500
vt 1.281400 0.295300
vt -0.128800 0.295300
vt -0.128800 0.237500
vt -0.080200 0.237500
vt -0.080200 0.295300
vt 1.334900 0.237500
vt 1.334900 0.295300
vt 1.132300 0.295400
vt 1.121100 0.244300
vt -0.277300 0.295500
vt -0.262300 0.244300
vt 1.083700 0.295400
vt 1.072400 0.244300
vt -0.330800 0.295500
vt -0.315800 0.244300
vn 1.000000 0.000000 0.000000
vn 1.000000 0.000000 0.000000
vn 1.000000 0.000000 0.000000
vn 1.000000 0.000000 0.000000
vn 1.000000 -0.000000 0.000000
vn 1.000000 -0.000000 0.000000
vn 1.000000 -0.000000 0.000000
vn 1.000000 -0.000000 0.000000
vn 1.000000 -0.000000 0.000000
vn 1.000000 -0.000000 0.000000
vn 1.000000 -0.000000 0.000000
vn 1.000000 -0.000000 0.000000
vn 1.000000 -0.000000 0.000000
vn 1.000000 -0.000000 0.000000
vn -1.000000 0.000000 -0.000000
vn -1.000000 0.000000 -0.000000
vn -1.000000 0.000000 -0.000000
vn -1.000000 0.000000 -0.000000
vn -1.000000 0.000000 -0.000000
vn -1.000000 0.000000 -0.000000
vn -1.000000 0.000000 -0.000000
vn -1.000000 0.000000 -0.000000
vn -1.000000 0.000000 -0.000000
vn -1.000000 0.000000 -0.000000
vn -1.000000 0.000000 -0.000000
vn -1.000000 0.000000 -0.000000
vn -1.000000 0.000000 -0.000000
vn -1.000000 0.000000 -0.000000
vn 0.000000 -1.000000 0.000000
vn 0.000000 -1.000000 0.000000
vn 0.000000 -1.000000 0.000000
vn 0.000000 -1.000000 0.000000
vn 0.000000 0.000000 1.000000
vn 0.000000 0.000000 1.000000
vn 0.000000 0.000000 1.000000
vn 0.000000 0.000000 1.000000
vn 0.000000 1.000000 0.000000
vn 0.000000 1.000000 0.000000
vn 0.000000 1.000000 0.000000
vn 0.000000 1.000000 0.000000
vn 0.000000 0.000000 -1.000000
vn 0.000000 0.000000 -1.000000
vn 0.000000 0.000000 -1.000000
vn 0.000000 0.000000 -1.000000
vn -1.000000 0.000000 -0.000000
vn -1.000000 0.000000 -0.000000
vn -0.984008 0.159101 -0.080101
vn -0.984408 0.156601 0.080101
vn -1.000000 0.000000 -0.000000
vn -1.000000 0.000000 -0.000000
vn -0.987307 -0.063900 -0.145401
vn -0.987023 0.063701 -0.147403
vn -1.000000 0.000000 -0.000000
vn -1.000000 0.000000 -0.000000
vn -0.984008 -0.159101 0.080101
vn -0.984408 -0.156601 -0.080101
vn -1.000000 0.000000 -0.000000
vn -1.000000 0.000000 -0.000000
vn -0.987307 0.063900 0.145401
vn -0.987023 -0.063701 0.147403
vn -0.325991 0.945373 -0.000000
vn -0.325991 0.945373 -0.000000
vn -0.325991 0.945373 -0.000000
vn -0.325991 0.945373 -0.000000
vn -0.823092 0.211898 -0.526895
vn -0.821691 -0.216298 -0.527294
vn -0.618694 -0.292397 -0.729193
vn -0.618168 0.293085 -0.729362
vn -0.325991 -0.945373 0.000000
vn -0.325991 -0.945373 0.000000
vn -0.325991 -0.945373 0.000000
vn -0.325991 -0.945373 0.000000
vn -0.823092 -0.211898 0.526895
vn -0.821691 0.216298 0.527294
vn -0.618694 0.292397 0.729193
vn -0.618168 -0.293085 0.729362
vn -0.862872 -0.357388 -0.357388
vn -0.862872 -0.357388 -0.357388
vn -0.862872 -0.357388 -0.357388
vn -0.862872 -0.357388 -0.357388
vn -0.862872 -0.357388 0.357388
vn -0.862872 -0.357388 0.357388
vn -0.862872 -0.357388 0.357388
vn -0.862872 -0.357388 0.357388
vn -0.862872 0.357388 -0.357388
vn -0.862872 0.357388 -0.357388
vn -0.862872 0.357388 -0.357388
vn -0.862872 0.357388 -0.357388
vn -0.862872 0.357388 0.357388
vn -0.862872 0.357388 0.357388
vn -0.862872 0.357388 0.357388
vn -0.862872 0.357388 0.357388
vn -0.984408 0.156601 0.080101
vn -0.792765 0.545976 0.270988
vn -0.821691 0.216298 0.527294
vn -0.987307 0.063900 0.145401
vn -0.987023 0.063701 -0.147403
vn -0.823092 0.211898 -0.526895
vn -0.793924 0.545516 -0.268508
vn -0.984008 0.159101 -0.080101
vn -0.984408 -0.156601 -0.080101
vn -0.792765 -0.545976 -0.270988
vn -0.821691 -0.216298 -0.527294
vn -0.987307 -0.063900 -0.145401
vn -0.987023 -0.063701 0.147403
vn -0.823092 -0.211898 0.526895
vn -0.793924 -0.545516 0.268508
vn -0.984008 -0.159101 0.080101
vn -0.707107 -0.707107 0.000000
vn -0.707107 -0.707107 0.000000
vn -0.707107 -0.707107 0.000000
vn -0.707107 -0.707107 0.000000
vn -0.707107 0.000000 0.707107
vn -0.707107 0.000000 0.707107
vn -0.707107 0.000000 0.707107
vn -0.707107 0.000000 0.707107
vn -0.707107 0.707107 -0.000000
vn -0.707107 0.707107 -0.000000
vn -0.707107 0.707107 -0.000000
vn -0.707107 0.707107 -0.000000
vn -0.707107 0.000000 -0.707107
vn -0.707107 0.000000 -0.707107
vn -0.707107 0.000000 -0.707107
vn -0.707107 0.000000 -0.707107
vn 0.000000 -0.707107 0.707107
vn 0.000000 -0.707107 0.707107
vn 0.000000 -0.707107 0.707107
vn 0.000000 -0.707107 0.707107
vn 0.000000 -0.707107 -0.707107
vn 0.000000 -0.707107 -0.707107
vn 0.000000 -0.707107 -0.707107
vn 0.000000 -0.707107 -0.707107
vn 0.000000 0.707107 0.707107
vn 0.000000 0.707107 0.707107
vn 0.000000 0.707107 0.707107
vn 0.000000 0.707107 0.707107
vn 0.000000 0.707107 -0.707107
vn 0.000000 0.707107 -0.707107
vn 0.000000 0.707107 -0.707107
vn 0.000000 0.707107 -0.707107
vn -0.792765 0.545976 0.270988
vn -0.984408 0.156601 0.080101
vn -0.984008 0.159101 -0.080101
vn -0.793924 0.545516 -0.268508
vn -0.823092 0.211898 -0.526895
vn -0.987023 0.063701 -0.147403
vn -0.987307 -0.063900 -0.145401
vn -0.821691 -0.216298 -0.527294
vn -0.792765 -0.545976 -0.270988
vn -0.984408 -0.156601 -0.080101
vn -0.984008 -0.159101 0.080101
vn -0.793924 -0.545516 0.268508
vn -0.823092 -0.211898 0.526895
vn -0.987023 -0.063701 0.147403
vn -0.987307 0.063900 0.145401
vn -0.821691 0.216298 0.527294
vn -1.000000 0.000000 -0.000000
vn -1.000000 0.000000 -0.000000
vn -0.984408 0.156601 0.080101
vn -0.987307 0.063900 0.145401
vn -1.000000 0.000000 -0.000000
vn -1.000000 0.000000 -0.000000
vn -0.987023 0.063701 -0.147403
vn -0.984008 0.159101 -0.080101
vn -1.000000 0.000000 -0.000000
vn -1.000000 0.000000 -0.000000
vn -0.984408 -0.156601 -0.080101
vn -0.987307 -0.063900 -0.145401
vn -1.000000 0.000000 -0.000000
vn -1.000000 0.000000 -0.000000
vn -0.987023 -0.063701 0.147403
vn -0.984008 -0.159101 0.080101
vn -0.821691 0.216298 0.527294
vn -0.792765 0.545976 0.270988
vn -0.597603 0.567603 0.566302
vn -0.618694 0.292397 0.729193
vn -0.793924 0.545516 -0.268508
vn -0.823092 0.211898 -0.526895
vn -0.618168 0.293085 -0.729362
vn -0.596719 0.567418 -0.567418
vn -0.821691 -0.216298 -0.527294
vn -0.792765 -0.545976 -0.270988
vn -0.597603 -0.567603 -0.566302
vn -0.618694 -0.292397 -0.729193
vn -0.793924 -0.545516 0.268508
vn -0.823092 -0.211898 0.526895
vn -0.618168 -0.293085 0.729362
vn -0.596719 -0.567418 0.567418
f 1/1/1 2/2/2 3/3/3 4/4/4
f 3/3/5 5/5/6 4/4/7
f 4/4/8 6/6/9 7/7/10 1/1/11
f 8/8/12 1/1/13 7/7/14
f 9/9/15 10/10/16 11/11/17 12/12/18
f 11/11/19 13/13/20 12/12/21
f 12/12/22 14/14/23 15/15/24 9/9/25
f 16/16/26 9/9/27 15/15/28
f 8/17/29 7/18/30 17/19/31 18/20/32
f 6/21/33 4/22/34 19/23/35 20/24/36
f 5/25/37 3/26/38 21/27/39 22/28/40
f 2/29/41 1/30/42 23/31/43 24/32/44
f 25/33/45 26/34/46 27/35/47 28/36/48
f 29/37/49 30/38/50 31/39/51 32/40/52
f 33/41/53 34/42/54 35/43/55 36/44/56
f 37/45/57 38/46/58 39/47/59 40/48/60
f 41/49/61 42/50/62 10/51/63 9/52/64
f 43/53/65 44/54/66 13/55/67 11/56/68
f 45/57/69 46/58/70 14/59/71 12/60/72
f 47/61/73 48/62/74 16/63/75 15/64/76
f 18/65/77 25/33/78 38/46/79 23/66/80
f 20/67/81 29/37/82 26/34/83 17/68/84
f 24/69/85 37/45/86 34/42/87 21/70/88
f 22/71/89 33/41/90 30/38/91 19/72/92
f 28/36/93 41/73/94 48/74/95 39/47/96
f 32/40/97 43/75/98 42/76/99 27/35/100
f 36/44/101 45/77/102 44/78/103 31/39/104
f 40/48/105 47/79/106 46/80/107 35/43/108
f 25/33/109 18/65/110 17/68/111 26/34/112
f 29/37/113 20/67/114 19/72/115 30/38/116
f 33/41/117 22/71/118 21/70/119 34/42/120
f 37/45/121 24/69/122 23/66/123 38/46/124
f 7/18/125 6/81/126 20/82/127 17/19/128
f 18/83/129 23/31/130 1/30/131 8/84/132
f 4/22/133 5/85/134 22/86/135 19/23/136
f 3/26/137 2/87/138 24/88/139 21/27/140
f 41/73/141 28/36/142 27/35/143 42/76/144
f 43/75/145 32/40/146 31/39/147 44/78/148
f 45/77/149 36/44/150 35/43/151 46/80/152
f 47/79/153 40/48/154 39/47/155 48/74/156
f 38/46/157 25/33/158 28/36/159 39/47/160
f 26/34/161 29/37/162 32/40/163 27/35/164
f 30/38/165 33/41/166 36/44/167 31/39/168
f 34/42/169 37/45/170 40/48/171 35/43/172
f 48/62/173 41/89/174 9/90/175 16/63/176
f 42/50/177 43/91/178 11/92/179 10/51/180
f 44/54/181 45/93/182 12/94/183 13/55/184
f 46/58/185 47/95/186 15/96/187 14/59/188
